#N canvas -8 -8 1299 725 10;
#X obj 24 63 gemhead;
#X obj 24 86 pix_video;
#X obj 24 108 pix_grey;
#X obj 24 580 pix_texture;
#X obj 24 640 rectangle 6 4;
#X floatatom 120 182 5 0 0 0 - - -;
#X floatatom 225 192 5 0 0 0 - - -;
#X floatatom 342 216 5 0 0 0 - - -;
#X obj 620 229 gemwin;
#X msg 620 182 create \, 1;
#X msg 691 194 0 \, destroy;
#X msg 773 196 dimen 320 240;
#X obj 343 335 +~;
#X obj 125 715 output~;
#X obj 220 330 +~;
#X obj 121 298 +~;
#X obj 120 459 +~;
#X obj 120 424 +~;
#X obj 24 133 pix_blob 4;
#X floatatom 453 250 5 0 0 0 - - -;
#X floatatom 556 270 5 0 0 0 - - -;
#X floatatom 684 290 5 0 0 0 - - -;
#X obj 684 501 +~;
#X obj 557 433 +~;
#X obj 454 358 +~;
#X obj 120 514 +~;
#X obj 120 489 +~;
#X obj 120 536 +~;
#X obj 120 245 osc~ 45.655;
#X obj 152 275 osc~ 46;
#X obj 225 264 osc~ 73.505;
#X obj 257 294 osc~ 74;
#X obj 342 282 osc~ 118.344;
#X obj 367 310 osc~ 119;
#X obj 453 302 osc~ 190.533;
#X obj 485 332 osc~ 191;
#X obj 556 376 osc~ 306.759;
#X obj 588 406 osc~ 307;
#X obj 683 441 osc~ 493.883;
#X obj 715 478 osc~ 494;
#X obj 348 597 +~;
#X obj 261 598 +~;
#X obj 174 587 +~;
#X obj 622 601 +~;
#X obj 530 595 +~;
#X obj 441 588 +~;
#X obj 175 540 osc~ 45.655;
#X obj 205 569 osc~ 46;
#X obj 261 543 osc~ 73.505;
#X obj 292 568 osc~ 74;
#X obj 348 545 osc~ 118.344;
#X obj 379 567 osc~ 119;
#X obj 440 545 osc~ 190.533;
#X obj 473 568 osc~ 191;
#X obj 529 543 osc~ 306.759;
#X obj 544 568 osc~ 307;
#X obj 621 541 osc~ 493.883;
#X obj 653 571 osc~ 494;
#X obj 121 558 +~;
#X obj 120 213 * 10000;
#X obj 225 232 * 10000;
#X obj 342 250 * 10000;
#X obj 453 277 * 10000;
#X obj 556 344 * 10000;
#X obj 683 409 * 10000;
#X obj 122 580 +~;
#X obj 123 635 +~;
#X obj 122 610 +~;
#X obj 123 659 +~;
#X obj 124 685 +~;
#X connect 0 0 1 0;
#X connect 1 0 2 0;
#X connect 2 0 18 0;
#X connect 3 0 4 0;
#X connect 5 0 59 0;
#X connect 6 0 60 0;
#X connect 7 0 61 0;
#X connect 9 0 8 0;
#X connect 10 0 8 0;
#X connect 11 0 8 0;
#X connect 12 0 16 1;
#X connect 14 0 17 1;
#X connect 15 0 17 0;
#X connect 16 0 26 0;
#X connect 17 0 16 0;
#X connect 18 0 3 0;
#X connect 18 1 5 0;
#X connect 18 1 19 0;
#X connect 18 2 6 0;
#X connect 18 2 20 0;
#X connect 18 3 7 0;
#X connect 18 3 21 0;
#X connect 19 0 62 0;
#X connect 20 0 63 0;
#X connect 21 0 64 0;
#X connect 22 0 27 1;
#X connect 23 0 25 1;
#X connect 24 0 26 1;
#X connect 25 0 27 0;
#X connect 26 0 25 0;
#X connect 27 0 58 0;
#X connect 28 0 15 0;
#X connect 29 0 15 1;
#X connect 30 0 14 0;
#X connect 31 0 14 1;
#X connect 32 0 12 0;
#X connect 33 0 12 1;
#X connect 34 0 24 0;
#X connect 35 0 24 1;
#X connect 36 0 23 0;
#X connect 37 0 23 1;
#X connect 38 0 22 0;
#X connect 39 0 22 1;
#X connect 40 0 67 1;
#X connect 41 0 65 1;
#X connect 42 0 58 1;
#X connect 43 0 69 1;
#X connect 44 0 68 1;
#X connect 45 0 66 1;
#X connect 46 0 42 0;
#X connect 47 0 42 1;
#X connect 48 0 41 0;
#X connect 49 0 41 1;
#X connect 50 0 40 0;
#X connect 51 0 40 1;
#X connect 52 0 45 0;
#X connect 53 0 45 1;
#X connect 54 0 44 0;
#X connect 55 0 44 1;
#X connect 56 0 43 0;
#X connect 57 0 43 1;
#X connect 58 0 65 0;
#X connect 59 0 28 0;
#X connect 60 0 30 0;
#X connect 61 0 32 0;
#X connect 62 0 34 0;
#X connect 63 0 36 0;
#X connect 64 0 38 0;
#X connect 65 0 67 0;
#X connect 66 0 68 0;
#X connect 67 0 66 0;
#X connect 68 0 69 0;
#X connect 69 0 13 0;
#X connect 69 0 13 1;
